<svg width="140" height="140" viewBox="0 0 140 140" fill="none" xmlns="http://www.w3.org/2000/svg">
<rect x="10" y="10" width="120" height="120" rx="60" fill="#697E97"/>
<line x1="44.1906" y1="95.1023" x2="95.1023" y2="44.1906" stroke="#D9D9D9"/>
<path d="M47.6504 54.0996L44.2754 53.2734L45.6641 40.4062H59.4629V43.9922H49.1797L48.4766 50.2676C48.875 50.0332 49.4258 49.8047 50.1289 49.582C50.832 49.3477 51.6348 49.2305 52.5371 49.2305C53.7441 49.2305 54.8223 49.4297 55.7715 49.8281C56.7324 50.2148 57.5469 50.7832 58.2148 51.5332C58.8828 52.2715 59.3926 53.1738 59.7441 54.2402C60.0957 55.2949 60.2715 56.4844 60.2715 57.8086C60.2715 58.9922 60.0957 60.0996 59.7441 61.1309C59.4043 62.1621 58.8887 63.0703 58.1973 63.8555C57.5059 64.6406 56.6328 65.2559 55.5781 65.7012C54.5352 66.1348 53.2988 66.3516 51.8691 66.3516C50.8027 66.3516 49.7773 66.1992 48.793 65.8945C47.8203 65.5781 46.9473 65.1152 46.1738 64.5059C45.4004 63.8848 44.7793 63.123 44.3105 62.2207C43.8418 61.3066 43.5723 60.2578 43.502 59.0742H47.6504C47.7559 59.9062 47.9844 60.6152 48.3359 61.2012C48.6992 61.7754 49.1797 62.2148 49.7773 62.5195C50.375 62.8242 51.0664 62.9766 51.8516 62.9766C52.5664 62.9766 53.1816 62.8535 53.6973 62.6074C54.2129 62.3496 54.6406 61.9863 54.9805 61.5176C55.332 61.0371 55.5898 60.4746 55.7539 59.8301C55.9297 59.1855 56.0176 58.4707 56.0176 57.6855C56.0176 56.9355 55.918 56.25 55.7188 55.6289C55.5312 55.0078 55.2441 54.4688 54.8574 54.0117C54.4824 53.5547 54.0078 53.2031 53.4336 52.957C52.8594 52.6992 52.1973 52.5703 51.4473 52.5703C50.4395 52.5703 49.666 52.7168 49.127 53.0098C48.5996 53.3027 48.1074 53.666 47.6504 54.0996Z" fill="white"/>
<path d="M92.834 93.877V97.252H74.377L74.2363 94.7031L85.2754 77.4062H88.668L84.9941 83.6992L78.6484 93.877H92.834ZM89.6348 77.4062V103H85.3984V77.4062H89.6348Z" fill="white"/>
</svg>
