<svg width="140" height="140" viewBox="0 0 140 140" fill="none" xmlns="http://www.w3.org/2000/svg">
<rect x="10" y="10" width="120" height="120" rx="60" fill="#697E97"/>
<line x1="44.1906" y1="95.1023" x2="95.1023" y2="44.1906" stroke="#D9D9D9"/>
<path d="M48.1777 51.2871H50.709C51.6934 51.2871 52.5078 51.1172 53.1523 50.7773C53.8086 50.4375 54.2949 49.9688 54.6113 49.3711C54.9277 48.7734 55.0859 48.0879 55.0859 47.3145C55.0859 46.5059 54.9395 45.8145 54.6465 45.2402C54.3652 44.6543 53.9316 44.2031 53.3457 43.8867C52.7715 43.5703 52.0391 43.4121 51.1484 43.4121C50.3984 43.4121 49.7188 43.5645 49.1094 43.8691C48.5117 44.1621 48.0371 44.584 47.6855 45.1348C47.334 45.6738 47.1582 46.3184 47.1582 47.0684H42.9043C42.9043 45.709 43.2617 44.502 43.9766 43.4473C44.6914 42.3926 45.6641 41.5664 46.8945 40.9688C48.1367 40.3594 49.5312 40.0547 51.0781 40.0547C52.7305 40.0547 54.1719 40.3301 55.4023 40.8809C56.6445 41.4199 57.6113 42.2285 58.3027 43.3066C58.9941 44.3848 59.3398 45.7207 59.3398 47.3145C59.3398 48.041 59.1699 48.7793 58.8301 49.5293C58.4902 50.2793 57.9863 50.9648 57.3184 51.5859C56.6504 52.1953 55.8184 52.6934 54.8223 53.0801C53.8262 53.4551 52.6719 53.6426 51.3594 53.6426H48.1777V51.2871ZM48.1777 54.5918V52.2715H51.3594C52.8594 52.2715 54.1367 52.4473 55.1914 52.7988C56.2578 53.1504 57.125 53.6367 57.793 54.2578C58.4609 54.8672 58.9473 55.5645 59.252 56.3496C59.5684 57.1348 59.7266 57.9668 59.7266 58.8457C59.7266 60.041 59.5098 61.1074 59.0762 62.0449C58.6543 62.9707 58.0508 63.7559 57.2656 64.4004C56.4805 65.0449 55.5605 65.5312 54.5059 65.8594C53.4629 66.1875 52.3262 66.3516 51.0957 66.3516C49.9941 66.3516 48.9395 66.1992 47.9316 65.8945C46.9238 65.5898 46.0215 65.1387 45.2246 64.541C44.4277 63.9316 43.7949 63.1758 43.3262 62.2734C42.8691 61.3594 42.6406 60.3047 42.6406 59.1094H46.877C46.877 59.8711 47.0527 60.5449 47.4043 61.1309C47.7676 61.7051 48.2715 62.1562 48.916 62.4844C49.5723 62.8125 50.3223 62.9766 51.166 62.9766C52.0566 62.9766 52.8242 62.8184 53.4688 62.502C54.1133 62.1855 54.6055 61.7168 54.9453 61.0957C55.2969 60.4746 55.4727 59.7246 55.4727 58.8457C55.4727 57.8496 55.2793 57.041 54.8926 56.4199C54.5059 55.7988 53.9551 55.3418 53.2402 55.0488C52.5254 54.7441 51.6816 54.5918 50.709 54.5918H48.1777Z" fill="white"/>
<path d="M92.834 93.877V97.252H74.377L74.2363 94.7031L85.2754 77.4062H88.668L84.9941 83.6992L78.6484 93.877H92.834ZM89.6348 77.4062V103H85.3984V77.4062H89.6348Z" fill="white"/>
</svg>
