<svg width="140" height="140" viewBox="0 0 140 140" fill="none" xmlns="http://www.w3.org/2000/svg">
<rect x="10" y="10" width="120" height="120" rx="60" fill="#697E97"/>
<line x1="44.1906" y1="95.1023" x2="95.1023" y2="44.1906" stroke="#D9D9D9"/>
<path d="M60.3594 62.625V66H43.2031V63.0996L51.5352 54.0117C52.4492 52.9805 53.1699 52.0898 53.6973 51.3398C54.2246 50.5898 54.5938 49.916 54.8047 49.3184C55.0273 48.709 55.1387 48.1172 55.1387 47.543C55.1387 46.7344 54.9863 46.0254 54.6816 45.416C54.3887 44.7949 53.9551 44.3086 53.3809 43.957C52.8066 43.5938 52.1094 43.4121 51.2891 43.4121C50.3398 43.4121 49.543 43.6172 48.8984 44.0273C48.2539 44.4375 47.7676 45.0059 47.4395 45.7324C47.1113 46.4473 46.9473 47.2676 46.9473 48.1934H42.7109C42.7109 46.7051 43.0508 45.3457 43.7305 44.1152C44.4102 42.873 45.3945 41.8887 46.6836 41.1621C47.9727 40.4238 49.5254 40.0547 51.3418 40.0547C53.0527 40.0547 54.5059 40.3418 55.7012 40.916C56.8965 41.4902 57.8047 42.3047 58.4258 43.3594C59.0586 44.4141 59.375 45.6621 59.375 47.1035C59.375 47.9004 59.2461 48.6914 58.9883 49.4766C58.7305 50.2617 58.3613 51.0469 57.8809 51.832C57.4121 52.6055 56.8555 53.3848 56.2109 54.1699C55.5664 54.9434 54.8574 55.7285 54.084 56.5254L48.5469 62.625H60.3594Z" fill="white"/>
<path d="M92.834 93.877V97.252H74.377L74.2363 94.7031L85.2754 77.4062H88.668L84.9941 83.6992L78.6484 93.877H92.834ZM89.6348 77.4062V103H85.3984V77.4062H89.6348Z" fill="white"/>
</svg>
